<svg width="26" height="26" viewBox="0 0 26 26" fill="none" xmlns="http://www.w3.org/2000/svg">
<g clip-path="url(#clip0_59_833)">
<path d="M13.7917 1.12501C13.7917 0.915047 13.7083 0.713684 13.5598 0.565217C13.4113 0.416751 13.21 0.333344 13 0.333344C12.79 0.333344 12.5887 0.416751 12.4402 0.565217C12.2917 0.713684 12.2083 0.915047 12.2083 1.12501V1.94518C9.54935 2.13563 7.04809 3.27808 5.16308 5.16309C3.27807 7.04809 2.13563 9.54935 1.94517 12.2083H1.125C0.915039 12.2083 0.713676 12.2918 0.56521 12.4402C0.416743 12.5887 0.333336 12.79 0.333336 13C0.333336 13.21 0.416743 13.4113 0.56521 13.5598C0.713676 13.7083 0.915039 13.7917 1.125 13.7917H1.94517C2.13563 16.4507 3.27807 18.9519 5.16308 20.8369C7.04809 22.7219 9.54935 23.8644 12.2083 24.0548V24.875C12.2083 25.085 12.2917 25.2863 12.4402 25.4348C12.5887 25.5833 12.79 25.6667 13 25.6667C13.21 25.6667 13.4113 25.5833 13.5598 25.4348C13.7083 25.2863 13.7917 25.085 13.7917 24.875V24.0548C16.4507 23.8644 18.9519 22.7219 20.8369 20.8369C22.7219 18.9519 23.8644 16.4507 24.0548 13.7917H24.875C25.085 13.7917 25.2863 13.7083 25.4348 13.5598C25.5833 13.4113 25.6667 13.21 25.6667 13C25.6667 12.79 25.5833 12.5887 25.4348 12.4402C25.2863 12.2918 25.085 12.2083 24.875 12.2083H24.0548C23.8644 9.54935 22.7219 7.04809 20.8369 5.16309C18.9519 3.27808 16.4507 2.13563 13.7917 1.94518V1.12501ZM3.53167 12.2083C3.71857 9.96969 4.69274 7.8697 6.28122 6.28123C7.86969 4.69275 9.96968 3.71858 12.2083 3.53168V4.29168C12.2083 4.50164 12.2917 4.703 12.4402 4.85147C12.5887 4.99994 12.79 5.08334 13 5.08334C13.21 5.08334 13.4113 4.99994 13.5598 4.85147C13.7083 4.703 13.7917 4.50164 13.7917 4.29168V3.53168C16.0303 3.71858 18.1303 4.69275 19.7188 6.28123C21.3073 7.8697 22.2814 9.96969 22.4683 12.2083H21.7083C21.4984 12.2083 21.297 12.2918 21.1485 12.4402C21.0001 12.5887 20.9167 12.79 20.9167 13C20.9167 13.21 21.0001 13.4113 21.1485 13.5598C21.297 13.7083 21.4984 13.7917 21.7083 13.7917H22.4683C22.2814 16.0303 21.3073 18.1303 19.7188 19.7188C18.1303 21.3073 16.0303 22.2814 13.7917 22.4683V21.7083C13.7917 21.4984 13.7083 21.297 13.5598 21.1486C13.4113 21.0001 13.21 20.9167 13 20.9167C12.79 20.9167 12.5887 21.0001 12.4402 21.1486C12.2917 21.297 12.2083 21.4984 12.2083 21.7083V22.4683C9.96968 22.2814 7.86969 21.3073 6.28122 19.7188C4.69274 18.1303 3.71857 16.0303 3.53167 13.7917H4.29167C4.50163 13.7917 4.703 13.7083 4.85146 13.5598C4.99993 13.4113 5.08334 13.21 5.08334 13C5.08334 12.79 4.99993 12.5887 4.85146 12.4402C4.703 12.2918 4.50163 12.2083 4.29167 12.2083H3.53167ZM13 16.1667C13.8399 16.1667 14.6453 15.833 15.2392 15.2392C15.833 14.6453 16.1667 13.8399 16.1667 13C16.1667 12.1602 15.833 11.3547 15.2392 10.7608C14.6453 10.167 13.8399 9.83334 13 9.83334C12.1602 9.83334 11.3547 10.167 10.7608 10.7608C10.167 11.3547 9.83334 12.1602 9.83334 13C9.83334 13.8399 10.167 14.6453 10.7608 15.2392C11.3547 15.833 12.1602 16.1667 13 16.1667Z" fill="#B0B9C2"/>
</g>
<defs>
<clipPath id="clip0_59_833">
<rect width="25.3333" height="25.3333" fill="white" transform="translate(0.333336 0.333344)"/>
</clipPath>
</defs>
</svg>
