<svg width="14" height="15" viewBox="0 0 14 15" fill="none" xmlns="http://www.w3.org/2000/svg">
<path fill-rule="evenodd" clip-rule="evenodd" d="M6.99911 3.75145C6.05354 3.75182 5.13355 4.05852 4.37691 4.62561C3.62028 5.19271 3.06774 5.98968 2.80205 6.89715C2.53636 7.80462 2.57183 8.77374 2.90313 9.65937C3.23444 10.545 3.84375 11.2994 4.63981 11.8097C5.43587 12.32 6.37583 12.5586 7.31889 12.4899C8.26195 12.4211 9.15735 12.0487 9.87099 11.4284C10.5846 10.808 11.0781 9.97319 11.2774 9.04888C11.4768 8.12457 11.3713 7.16055 10.9769 6.30121C10.9339 6.19673 10.9331 6.07969 10.9744 5.97459C11.0158 5.86949 11.0963 5.78447 11.1989 5.73732C11.3016 5.69018 11.4185 5.68457 11.5252 5.72166C11.6319 5.75876 11.7201 5.83568 11.7714 5.93633C12.2447 6.9676 12.3712 8.12447 12.1319 9.23366C11.8926 10.3429 11.3004 11.3447 10.4439 12.089C9.58746 12.8334 8.51289 13.2802 7.38117 13.3626C6.24945 13.445 5.12149 13.1585 4.16627 12.546C3.21104 11.9335 2.47996 11.0281 2.08254 9.96522C1.68511 8.90237 1.64274 7.73938 1.96176 6.65043C2.28079 5.56148 2.94403 4.6052 3.85216 3.92484C4.76028 3.24447 5.86439 2.87665 6.99911 2.87645V3.75145Z" fill="#3182F7"/>
<path d="M6.99908 5.03421V1.59371C6.9991 1.55214 7.01096 1.51144 7.03327 1.47637C7.05558 1.4413 7.08742 1.41331 7.12506 1.39569C7.16271 1.37806 7.20459 1.37152 7.24582 1.37684C7.28704 1.38216 7.3259 1.39911 7.35783 1.42571L9.42283 3.14596C9.52783 3.23346 9.52783 3.39446 9.42283 3.48196L7.35783 5.20221C7.3259 5.22881 7.28704 5.24576 7.24582 5.25108C7.20459 5.2564 7.16271 5.24986 7.12506 5.23223C7.08742 5.2146 7.05558 5.18662 7.03327 5.15155C7.01096 5.11648 6.9991 5.07577 6.99908 5.03421Z" fill="#3182F7"/>
</svg>
