<svg width="18" height="19" viewBox="0 0 18 19" fill="none" xmlns="http://www.w3.org/2000/svg">
<path fill-rule="evenodd" clip-rule="evenodd" d="M6.46885 15.575C6.2101 15.575 5.95135 15.4737 5.74885 15.2825C5.55993 15.0928 5.45386 14.8359 5.45386 14.5682C5.45386 14.3003 5.55993 14.0435 5.74885 13.8537L10.1026 9.5L5.74885 5.1575C5.55993 4.96774 5.45386 4.71088 5.45386 4.44312C5.45386 4.17536 5.55993 3.9185 5.74885 3.72875C5.9386 3.53983 6.19546 3.43377 6.46323 3.43377C6.73098 3.43377 6.98784 3.53983 7.1776 3.72875L12.2401 8.79125C12.429 8.981 12.535 9.23786 12.535 9.50558C12.535 9.77342 12.429 10.0303 12.2401 10.22L7.1776 15.2825C6.98635 15.4737 6.7276 15.575 6.46885 15.575Z" fill="#AFAFAF"/>
</svg>
