<svg width="12" height="12" viewBox="0 0 39 32" fill="none" xmlns="http://www.w3.org/2000/svg">
<path d="M31.751 26.4422L34.555 11.3862C34.679 10.7202 33.97 10.2102 33.378 10.5412L28.382 13.3342C26.987 14.1142 25.226 13.6632 24.377 12.3092L20.079 5.45618C19.765 4.95618 19.037 4.95618 18.724 5.45618L14.426 12.3092C13.577 13.6632 11.816 14.1132 10.421 13.3342L5.42497 10.5412C4.83297 10.2102 4.12397 10.7192 4.24797 11.3862L7.05197 26.4422" fill="#FFCD00"/>
<path d="M30.168 31.1921H8.63396C7.68396 31.1921 7.05096 30.5591 7.05096 29.6091V26.4421H31.751V29.6091C31.751 30.4011 31.118 31.1921 30.168 31.1921Z" fill="#FFAD00"/>
<path d="M19.4009 5.08016C20.7999 5.08016 21.9339 3.9461 21.9339 2.54716C21.9339 1.14822 20.7999 0.0141602 19.4009 0.0141602C18.002 0.0141602 16.8679 1.14822 16.8679 2.54716C16.8679 3.9461 18.002 5.08016 19.4009 5.08016Z" fill="#FFAD00"/>
<path d="M35.868 11.2412C37.2669 11.2412 38.401 10.1071 38.401 8.70817C38.401 7.30923 37.2669 6.17517 35.868 6.17517C34.469 6.17517 33.335 7.30923 33.335 8.70817C33.335 10.1071 34.469 11.2412 35.868 11.2412Z" fill="#FFAD00"/>
<path d="M2.93394 11.2412C4.33288 11.2412 5.46694 10.1071 5.46694 8.70817C5.46694 7.30923 4.33288 6.17517 2.93394 6.17517C1.535 6.17517 0.40094 7.30923 0.40094 8.70817C0.40094 10.1071 1.535 11.2412 2.93394 11.2412Z" fill="#FFAD00"/>
</svg>
