<svg width="18" height="18" viewBox="0 0 18 18" fill="none" xmlns="http://www.w3.org/2000/svg">
<g clip-path="url(#clip0_1022_515)">
<path d="M5.34375 1.6875C4.33542 1.6875 3.51562 2.5073 3.51562 3.51562V14.4844C3.51562 15.4927 4.33542 16.3125 5.34375 16.3125H12.6562C13.6646 16.3125 14.4844 15.4927 14.4844 14.4844V6.25781H10.8281C10.3225 6.25781 9.91406 5.84934 9.91406 5.34375V1.6875H5.34375ZM10.8281 1.6875V5.34375H14.4844L10.8281 1.6875ZM6.71484 9H11.2852C11.5365 9 11.7422 9.20566 11.7422 9.45703C11.7422 9.7084 11.5365 9.91406 11.2852 9.91406H6.71484C6.46348 9.91406 6.25781 9.7084 6.25781 9.45703C6.25781 9.20566 6.46348 9 6.71484 9ZM6.71484 10.8281H11.2852C11.5365 10.8281 11.7422 11.0338 11.7422 11.2852C11.7422 11.5365 11.5365 11.7422 11.2852 11.7422H6.71484C6.46348 11.7422 6.25781 11.5365 6.25781 11.2852C6.25781 11.0338 6.46348 10.8281 6.71484 10.8281ZM6.71484 12.6562H11.2852C11.5365 12.6562 11.7422 12.8619 11.7422 13.1133C11.7422 13.3646 11.5365 13.5703 11.2852 13.5703H6.71484C6.46348 13.5703 6.25781 13.3646 6.25781 13.1133C6.25781 12.8619 6.46348 12.6562 6.71484 12.6562Z" fill="#B0B9C2"/>
</g>
<defs>
<clipPath id="clip0_1022_515">
<rect width="10.9688" height="14.625" fill="white" transform="translate(3.51562 1.6875)"/>
</clipPath>
</defs>
</svg>
