<svg width="18" height="18" viewBox="0 0 18 18" fill="none" xmlns="http://www.w3.org/2000/svg">
<g clip-path="url(#clip0_1022_471)">
<path d="M9.00019 1.6875C8.4946 1.6875 8.08612 2.09597 8.08612 2.60156V3.15C6.00092 3.57275 4.42987 5.41802 4.42987 7.62891V8.16592C4.42987 9.50845 3.93571 10.8053 3.0445 11.8107L2.83312 12.0478C2.59318 12.3163 2.53605 12.702 2.68173 13.0304C2.82741 13.3589 3.1559 13.5703 3.51581 13.5703H14.4846C14.8445 13.5703 15.1701 13.3589 15.3186 13.0304C15.4672 12.702 15.4072 12.3163 15.1673 12.0478L14.9559 11.8107C14.0647 10.8053 13.5705 9.5113 13.5705 8.16592V7.62891C13.5705 5.41802 11.9995 3.57275 9.91425 3.15V2.60156C9.91425 2.09597 9.50578 1.6875 9.00019 1.6875ZM10.2942 15.7783C10.6369 15.4356 10.8283 14.97 10.8283 14.4844H9.00019H7.17206C7.17206 14.97 7.36344 15.4356 7.70622 15.7783C8.04899 16.1211 8.51459 16.3125 9.00019 16.3125C9.48578 16.3125 9.95138 16.1211 10.2942 15.7783Z" fill="#B0B9C2"/>
</g>
<defs>
<clipPath id="clip0_1022_471">
<rect width="12.7969" height="14.625" fill="white" transform="translate(2.60156 1.6875)"/>
</clipPath>
</defs>
</svg>
