<svg width="130" height="130" viewBox="0 0 130 130" fill="none" xmlns="http://www.w3.org/2000/svg">
<g clip-path="url(#clip0_229_498)">
<path d="M113.805 68.3053V102.447H16.1948V68.3053C16.1948 62.907 20.5725 58.5293 25.9708 58.5293H104.029C109.428 58.5293 113.805 62.907 113.805 68.3053Z" fill="#FFB72D"/>
<path d="M92.0757 102.447H113.805V108.856C113.805 111.696 111.501 114 108.66 114H97.2238C94.3832 114 92.079 111.696 92.079 108.856V102.447H92.0757Z" fill="#333D4B"/>
<path d="M59.28 15.9966H70.7168C73.5573 15.9966 75.8615 18.3008 75.8615 21.1413V27.5503H54.132V21.1413C54.132 18.3008 56.4395 15.9966 59.28 15.9966Z" fill="#FFB72D"/>
<path d="M16.1948 102.447H37.9243V108.856C37.9243 111.696 35.62 114 32.7795 114H21.3428C18.5023 114 16.198 111.696 16.198 108.856V102.447H16.1948Z" fill="#333D4B"/>
<path d="M104.029 58.5291L95.7873 32.5194C94.1623 27.3876 89.3978 23.9004 84.0158 23.9004H45.9843C40.599 23.9004 35.8378 27.3876 34.2095 32.5194L25.9708 58.5291" fill="#313D4C"/>
<path d="M94.5588 86.086H35.4413C33.3093 86.086 31.5803 84.3603 31.5803 82.225C31.5803 80.0898 33.3093 78.364 35.4413 78.364H94.5555C96.6875 78.364 98.4165 80.0898 98.4165 82.225C98.4165 84.3603 96.6908 86.086 94.5588 86.086Z" fill="white"/>
</g>
<defs>
<clipPath id="clip0_229_498">
<rect width="130" height="130" fill="white"/>
</clipPath>
</defs>
</svg>
