<svg width="26" height="26" viewBox="0 0 26 26" fill="none" xmlns="http://www.w3.org/2000/svg">
<path d="M5.87158 4.13715L5.87158 22.1084C5.87158 23.5144 7.01143 24.6543 8.4175 24.6543C9.82357 24.6543 10.9634 23.5144 10.9634 22.1084V4.13715C10.9634 2.73108 9.82357 1.59123 8.4175 1.59123C7.01143 1.59123 5.87158 2.73108 5.87158 4.13715Z" fill="#D4D7DC"/>
<path d="M6.53245 11.4783C7.43627 10.4012 9.04212 10.2608 10.1192 11.1645L20.559 19.9245C21.6361 20.8284 21.7766 22.4342 20.8728 23.5112C19.969 24.5884 18.3632 24.729 17.286 23.8251L6.84627 15.0651C5.76915 14.1612 5.62865 12.5555 6.53245 11.4783Z" fill="#D4D7DC"/>
<path d="M17.2663 2.42099L6.84686 11.164C5.76975 12.0678 5.62926 13.6736 6.53306 14.7507C7.43687 15.8278 9.04272 15.9683 10.1198 15.0645L20.5393 6.32157C21.6164 5.41776 21.7569 3.81191 20.8531 2.7348C19.9493 1.65768 18.3434 1.51719 17.2663 2.42099Z" fill="#D4D7DC"/>
<path d="M8.4175 15.668C9.82358 15.668 10.9634 14.5282 10.9634 13.1221C10.9634 11.716 9.82358 10.5762 8.4175 10.5762C7.01143 10.5762 5.87158 11.716 5.87158 13.1221C5.87158 14.5282 7.01143 15.668 8.4175 15.668Z" fill="#A7ADB9" fill-opacity="0.8"/>
<path d="M18.9003 6.83285C20.3063 6.83285 21.4462 5.69301 21.4462 4.28693C21.4462 2.88086 20.3063 1.74101 18.9003 1.74101C17.4942 1.74101 16.3543 2.88086 16.3543 4.28693C16.3543 5.69301 17.4942 6.83285 18.9003 6.83285Z" fill="#A7ADB9" fill-opacity="0.8"/>
<path d="M18.9003 24.4293C20.3063 24.4293 21.4462 23.2895 21.4462 21.8834C21.4462 20.4773 20.3063 19.3375 18.9003 19.3375C17.4942 19.3375 16.3543 20.4773 16.3543 21.8834C16.3543 23.2895 17.4942 24.4293 18.9003 24.4293Z" fill="#A7ADB9" fill-opacity="0.8"/>
<path d="M8.4175 6.68278C9.82358 6.68278 10.9634 5.54293 10.9634 4.13686C10.9634 2.73079 9.82358 1.59094 8.4175 1.59094C7.01143 1.59094 5.87158 2.73079 5.87158 4.13686C5.87158 5.54293 7.01143 6.68278 8.4175 6.68278Z" fill="#A7ADB9" fill-opacity="0.8"/>
<path d="M8.41598 24.6547C9.82205 24.6547 10.9619 23.5149 10.9619 22.1088C10.9619 20.7027 9.82205 19.5629 8.41598 19.5629C7.0099 19.5629 5.87006 20.7027 5.87006 22.1088C5.87006 23.5149 7.0099 24.6547 8.41598 24.6547Z" fill="#A7ADB9" fill-opacity="0.8"/>
</svg>
