<svg width="26" height="26" viewBox="0 0 20 21" fill="none" xmlns="http://www.w3.org/2000/svg">
<path d="M17.5085 11.0085V16.261H2.49152V11.0085C2.49152 10.178 3.16502 9.5045 3.99552 9.5045H16.0045C16.835 9.5045 17.5085 10.178 17.5085 11.0085Z" fill="#FFB72D"/>
<path d="M14.1655 16.261H17.5085V17.247C17.5085 17.684 17.154 18.0385 16.717 18.0385H14.9575C14.5205 18.0385 14.166 17.684 14.166 17.247V16.261H14.1655Z" fill="#333D4B"/>
<path d="M9.12 2.961H10.8795C11.3165 2.961 11.671 3.3155 11.671 3.7525V4.7385H8.328V3.7525C8.328 3.3155 8.683 2.961 9.12 2.961Z" fill="#FFB72D"/>
<path d="M2.49152 16.261H5.83452V17.247C5.83452 17.684 5.48002 18.0385 5.04302 18.0385H3.28352C2.84652 18.0385 2.49202 17.684 2.49202 17.247V16.261H2.49152Z" fill="#333D4B"/>
<path d="M16.0045 9.5045L14.7365 5.503C14.4865 4.7135 13.7535 4.177 12.9255 4.177H7.07448C6.24598 4.177 5.51348 4.7135 5.26298 5.503L3.99548 9.5045" fill="#313D4C"/>
<path d="M14.5475 13.744H5.45252C5.12452 13.744 4.85852 13.4785 4.85852 13.15C4.85852 12.8215 5.12452 12.556 5.45252 12.556H14.547C14.875 12.556 15.141 12.8215 15.141 13.15C15.141 13.4785 14.8755 13.744 14.5475 13.744Z" fill="white"/>
</svg>
