<svg width="11" height="11" viewBox="0 0 11 11" fill="none" xmlns="http://www.w3.org/2000/svg">
<path d="M7.97998 5.75178L4.69078 8.62938C4.30318 8.96898 3.69598 8.69298 3.69598 8.17758V2.42238C3.69589 2.30704 3.72904 2.19411 3.79147 2.09712C3.8539 2.00013 3.94297 1.92319 4.048 1.87551C4.15303 1.82784 4.26958 1.81145 4.38369 1.82831C4.4978 1.84518 4.60463 1.89457 4.69138 1.97058L7.97938 4.84818C8.04383 4.9045 8.09548 4.97395 8.13087 5.05188C8.16626 5.1298 8.18457 5.2144 8.18457 5.29998C8.18457 5.38557 8.16626 5.47016 8.13087 5.54809C8.09548 5.62601 8.04383 5.69547 7.97938 5.75178H7.97998Z" fill="#B0B9C2"/>
</svg>
