<svg width="14" height="15" viewBox="0 0 14 15" fill="none" xmlns="http://www.w3.org/2000/svg">
<g clip-path="url(#clip0_35_834)">
<path d="M11.124 7.3C11.124 8.41709 10.6802 9.48843 9.8903 10.2783C9.1004 11.0682 8.02906 11.512 6.91197 11.512C5.79487 11.512 4.72354 11.0682 3.93363 10.2783C3.14373 9.48843 2.69997 8.41709 2.69997 7.3C2.69997 6.18291 3.14373 5.11157 3.93363 4.32166C4.72354 3.53176 5.79487 3.088 6.91197 3.088C8.02906 3.088 9.1004 3.53176 9.8903 4.32166C10.6802 5.11157 11.124 6.18291 11.124 7.3ZM1.72797 7.3C1.72797 8.67488 2.27414 9.99345 3.24632 10.9656C4.21851 11.9378 5.53708 12.484 6.91197 12.484C8.28685 12.484 9.60542 11.9378 10.5776 10.9656C11.5498 9.99345 12.096 8.67488 12.096 7.3C12.096 5.92511 11.5498 4.60654 10.5776 3.63436C9.60542 2.66217 8.28685 2.116 6.91197 2.116C5.53708 2.116 4.21851 2.66217 3.24632 3.63436C2.27414 4.60654 1.72797 5.92511 1.72797 7.3ZM6.42597 4.546V7.3C6.42597 7.462 6.50697 7.61387 6.64264 7.705L8.58664 9.001C8.80939 9.15085 9.11112 9.0901 9.26097 8.86532C9.41082 8.64055 9.35007 8.34085 9.12529 8.191L7.39797 7.0408V4.546C7.39797 4.27667 7.18129 4.06 6.91197 4.06C6.64264 4.06 6.42597 4.27667 6.42597 4.546Z" fill="#B0B9C2"/>
</g>
<defs>
<clipPath id="clip0_35_834">
<rect width="10.368" height="10.368" fill="white" transform="translate(1.72797 2.116)"/>
</clipPath>
</defs>
</svg>
