<svg width="13" height="13" viewBox="0 0 13 13" fill="none" xmlns="http://www.w3.org/2000/svg">
<g clip-path="url(#clip0_35_839)">
<path d="M6.24804 12.348C6.24804 12.348 10.784 8.04937 10.784 4.78798C10.784 3.58496 10.3061 2.43121 9.45547 1.58055C8.60481 0.729882 7.45106 0.251984 6.24804 0.251984C5.04501 0.251984 3.89126 0.729882 3.0406 1.58055C2.18993 2.43121 1.71204 3.58496 1.71204 4.78798C1.71204 8.04937 6.24804 12.348 6.24804 12.348ZM6.24804 7.05598C5.64653 7.05598 5.06965 6.81703 4.64432 6.3917C4.21899 5.96637 3.98004 5.38949 3.98004 4.78798C3.98004 4.18647 4.21899 3.6096 4.64432 3.18427C5.06965 2.75893 5.64653 2.51998 6.24804 2.51998C6.84955 2.51998 7.42642 2.75893 7.85175 3.18427C8.27709 3.6096 8.51604 4.18647 8.51604 4.78798C8.51604 5.38949 8.27709 5.96637 7.85175 6.3917C7.42642 6.81703 6.84955 7.05598 6.24804 7.05598Z" fill="#B0B9C2"/>
</g>
<defs>
<clipPath id="clip0_35_839">
<rect width="12.096" height="12.096" fill="white" transform="translate(0.200012 0.251984)"/>
</clipPath>
</defs>
</svg>
