<svg width="20" height="20" viewBox="0 0 20 20" fill="none" xmlns="http://www.w3.org/2000/svg">
<g clip-path="url(#clip0_191_325)">
<path d="M7.50007 1.94448C7.50007 1.48267 7.12854 1.11115 6.66673 1.11115C6.20493 1.11115 5.8334 1.48267 5.8334 1.94448V3.33337H4.44451C3.21882 3.33337 2.22229 4.32989 2.22229 5.55559V6.11114V7.77781V16.6667C2.22229 17.8924 3.21882 18.8889 4.44451 18.8889H15.5556C16.7813 18.8889 17.7778 17.8924 17.7778 16.6667V7.77781V6.11114V5.55559C17.7778 4.32989 16.7813 3.33337 15.5556 3.33337H14.1667V1.94448C14.1667 1.48267 13.7952 1.11115 13.3334 1.11115C12.8716 1.11115 12.5001 1.48267 12.5001 1.94448V3.33337H7.50007V1.94448ZM3.88896 7.77781H16.1112V16.6667C16.1112 16.9723 15.8612 17.2223 15.5556 17.2223H4.44451C4.13896 17.2223 3.88896 16.9723 3.88896 16.6667V7.77781Z" fill="#B0B9C2"/>
</g>
<defs>
<clipPath id="clip0_191_325">
<rect width="15.5556" height="17.7778" fill="white" transform="translate(2.22229 1.11115)"/>
</clipPath>
</defs>
</svg>
