<svg width="18" height="19" viewBox="0 0 18 19" fill="none" xmlns="http://www.w3.org/2000/svg">
<g clip-path="url(#clip0_191_313)">
<path d="M9.00008 16.6608C12.5416 16.6608 15.4126 13.7898 15.4126 10.2483C15.4126 6.70679 12.5416 3.83582 9.00008 3.83582C5.45856 3.83582 2.58759 6.70679 2.58759 10.2483C2.58759 13.7898 5.45856 16.6608 9.00008 16.6608Z" fill="#E5E8EB"/>
<path d="M9.00005 17.3543C5.0819 17.3543 1.8941 14.1669 1.8941 10.2483C1.8941 6.32975 5.08145 3.1424 9.00005 3.1424C12.9187 3.1424 16.106 6.32975 16.106 10.2483C16.106 14.1669 12.9187 17.3543 9.00005 17.3543ZM9.00005 4.5293C5.84645 4.5293 3.281 7.0952 3.281 10.2483C3.281 13.4015 5.8469 15.9674 9.00005 15.9674C12.1532 15.9674 14.7191 13.4015 14.7191 10.2483C14.7191 7.0952 12.1532 4.5293 9.00005 4.5293Z" fill="#EF4452"/>
<path d="M15.1907 5.20433C15.5881 5.48243 16.1564 5.28938 16.2788 4.82003C16.5556 3.75983 16.1654 2.59253 15.215 1.92743C14.2646 1.26188 13.0348 1.29428 12.133 1.91708C11.7338 2.19293 11.7464 2.79278 12.1442 3.07133L15.1907 5.20433Z" fill="#EF4452"/>
<path d="M2.80937 5.20433C2.41202 5.48243 1.84367 5.28938 1.72127 4.82003C1.44452 3.75983 1.83467 2.59253 2.78507 1.92743C3.73547 1.26188 4.96532 1.29428 5.86712 1.91708C6.26627 2.19293 6.25367 2.79278 5.85587 3.07133L2.80937 5.20433Z" fill="#EF4452"/>
<path d="M9.00003 10.9418H6.35403C5.97108 10.9418 5.66058 10.6313 5.66058 10.2483C5.66058 9.86537 5.97108 9.55487 6.35403 9.55487H9.00003C9.38298 9.55487 9.69348 9.86537 9.69348 10.2483C9.69348 10.6313 9.38298 10.9418 9.00003 10.9418Z" fill="#EF4452"/>
<path d="M9.00009 10.9418C8.61714 10.9418 8.30664 10.6313 8.30664 10.2484V6.45486C8.30664 6.07191 8.61714 5.76141 9.00009 5.76141C9.38304 5.76141 9.69354 6.07191 9.69354 6.45486V10.2484C9.69354 10.6313 9.38304 10.9418 9.00009 10.9418Z" fill="#313D4C"/>
</g>
<defs>
<clipPath id="clip0_191_313">
<rect width="18" height="18" fill="white" transform="translate(0 0.5)"/>
</clipPath>
</defs>
</svg>
