<svg width="18" height="19" viewBox="0 0 18 19" fill="none" xmlns="http://www.w3.org/2000/svg">
<g clip-path="url(#clip0_156_254)">
<path fill-rule="evenodd" clip-rule="evenodd" d="M13.4244 16.0996V2.90024C13.4244 2.40299 13.0216 2.00024 12.5244 2.00024H5.17454L0.674988 6.50024V16.0996C0.674988 16.5969 1.07774 16.9996 1.57499 16.9996H12.5244C13.0216 16.9996 13.4244 16.5969 13.4244 16.0996Z" fill="#E5E9EE"/>
<path fill-rule="evenodd" clip-rule="evenodd" d="M4.27499 6.50024H0.674988L5.17454 2.00024V5.60024C5.17454 6.09749 4.77179 6.50024 4.27454 6.50024H4.27499Z" fill="#C0C7D1"/>
<path d="M13.7061 7.17724L7.33032 13.553L9.74863 15.9713L16.1244 9.59555L13.7061 7.17724Z" fill="#FFAA00"/>
<path fill-rule="evenodd" clip-rule="evenodd" d="M17.1225 8.59728L16.1244 9.59538L13.7061 7.17708L14.7038 6.17943C14.9738 5.90943 15.4112 5.90943 15.6812 6.17943L17.1221 7.62033C17.3921 7.89033 17.3921 8.32773 17.1221 8.59773L17.1225 8.59728Z" fill="#FF9000"/>
<path fill-rule="evenodd" clip-rule="evenodd" d="M6.77071 16.7693L7.95241 16.4525L6.84901 15.3486L6.53221 16.5308C6.49351 16.6757 6.62581 16.808 6.77071 16.7693Z" fill="#313D4C"/>
<path fill-rule="evenodd" clip-rule="evenodd" d="M6.849 15.3486L7.95285 16.4525L9.7488 15.971L7.3305 13.5531L6.849 15.3486Z" fill="#FFCCA8"/>
</g>
<defs>
<clipPath id="clip0_156_254">
<rect width="18" height="18" fill="white" transform="translate(0 0.5)"/>
</clipPath>
</defs>
</svg>
