<svg width="18" height="19" viewBox="0 0 18 19" fill="none" xmlns="http://www.w3.org/2000/svg">
<g clip-path="url(#clip0_156_240)">
<path d="M9 18.3074C8.6094 18.3074 8.2926 17.9906 8.2926 17.6V8.47943C8.2926 8.08883 8.6094 7.77203 9 7.77203C9.3906 7.77203 9.7074 8.08883 9.7074 8.47943V17.6C9.7074 17.9906 9.3906 18.3074 9 18.3074Z" fill="#4B596A"/>
<path d="M9.00003 12.7211C12.1263 12.7211 14.6606 10.1868 14.6606 7.06057C14.6606 3.93434 12.1263 1.40002 9.00003 1.40002C5.87379 1.40002 3.33948 3.93434 3.33948 7.06057C3.33948 10.1868 5.87379 12.7211 9.00003 12.7211Z" fill="#EF4452"/>
</g>
<defs>
<clipPath id="clip0_156_240">
<rect width="18" height="18" fill="white" transform="translate(0 0.5)"/>
</clipPath>
</defs>
</svg>
