<svg width="18" height="19" viewBox="0 0 18 19" fill="none" xmlns="http://www.w3.org/2000/svg">
<g clip-path="url(#clip0_156_245)">
<path d="M5.90936 9.23583C7.45794 9.23583 8.71331 7.98046 8.71331 6.43188C8.71331 4.8833 7.45794 3.62793 5.90936 3.62793C4.36078 3.62793 3.10541 4.8833 3.10541 6.43188C3.10541 7.98046 4.36078 9.23583 5.90936 9.23583Z" fill="#8BBDFF"/>
<path d="M5.90939 10.0935C2.14109 10.0935 0.674988 12.663 0.674988 13.8582C0.674988 15.0534 3.79529 15.3716 5.90939 15.3716C8.02349 15.3716 11.1438 15.0534 11.1438 13.8582C11.1438 12.663 9.67814 10.0935 5.90939 10.0935Z" fill="#8BBDFF"/>
<path d="M12.0906 9.23583C13.6392 9.23583 14.8945 7.98046 14.8945 6.43188C14.8945 4.8833 13.6392 3.62793 12.0906 3.62793C10.542 3.62793 9.28662 4.8833 9.28662 6.43188C9.28662 7.98046 10.542 9.23583 12.0906 9.23583Z" fill="#3180F3"/>
<path d="M12.0906 10.0935C8.3223 10.0935 6.8562 12.663 6.8562 13.8582C6.8562 15.0534 9.9765 15.3716 12.0906 15.3716C14.2047 15.3716 17.325 15.0534 17.325 13.8582C17.325 12.663 15.8594 10.0935 12.0906 10.0935Z" fill="#3180F3"/>
</g>
<defs>
<clipPath id="clip0_156_245">
<rect width="18" height="18" fill="white" transform="translate(0 0.5)"/>
</clipPath>
</defs>
</svg>
