<svg width="18" height="19" viewBox="0 0 18 19" fill="none" xmlns="http://www.w3.org/2000/svg">
<g clip-path="url(#clip0_191_373)">
<path d="M16.7544 10.7924C16.7544 9.26289 15.8841 7.86834 14.5089 7.19874C12.334 6.13989 9.18269 4.60899 7.89884 4.00239C7.14869 3.64824 6.25949 3.81339 5.68394 4.41054L2.29184 7.93089C1.94444 8.29134 1.75049 8.77194 1.75049 9.27234V12.1672C1.75049 13.7687 3.04874 15.0674 4.65074 15.0674L12.7629 15.0535C14.9683 15.0499 16.7544 13.2607 16.7544 11.0552V10.7924Z" fill="#FFCCA8"/>
<path d="M8.78535 10.094V8.47357L5.8941 11.3648L8.78535 10.094Z" fill="#E68E51"/>
<path d="M14.2029 2.48001L13.4581 1.73481C13.2881 1.56471 13.0122 1.56471 12.8421 1.73481L0.8361 13.7408C0.7812 13.7957 0.74205 13.8637 0.721799 13.9388L0.35325 15.3145C0.30915 15.4787 0.45945 15.6286 0.62325 15.5845L1.9989 15.2159C2.0736 15.1957 2.142 15.1565 2.1969 15.1016L2.8368 14.4617C2.72475 14.3159 2.63565 14.1494 2.58255 13.964C2.37645 13.2422 2.73915 12.4795 3.42945 12.1834L6.1938 11.1052L14.2029 3.09606C14.373 2.92596 14.373 2.65011 14.2029 2.48001Z" fill="#4B596A"/>
<path d="M2.58302 13.964C2.63612 14.1494 2.72477 14.3159 2.83727 14.4617C3.13427 14.8478 3.60857 15.0773 4.11842 15.0431L10.4139 15.0058L9.70022 9.73718L6.19382 11.1052L3.42947 12.1834C2.73917 12.4795 2.37737 13.2418 2.58302 13.964Z" fill="#FFCCA8"/>
</g>
<defs>
<clipPath id="clip0_191_373">
<rect width="18" height="18" fill="white" transform="translate(0 0.5)"/>
</clipPath>
</defs>
</svg>
