<svg width="26" height="26" viewBox="0 0 26 26" fill="none" xmlns="http://www.w3.org/2000/svg">
<path d="M4.03031 22.3636C4.03031 22.3636 2.36365 22.3636 2.36365 20.697C2.36365 19.0303 4.03031 14.0303 12.3636 14.0303C20.697 14.0303 22.3636 19.0303 22.3636 20.697C22.3636 22.3636 20.697 22.3636 20.697 22.3636H4.03031ZM12.3636 12.3636C13.6897 12.3636 14.9615 11.8369 15.8992 10.8992C16.8369 9.9615 17.3636 8.68973 17.3636 7.36365C17.3636 6.03756 16.8369 4.7658 15.8992 3.82811C14.9615 2.89043 13.6897 2.36365 12.3636 2.36365C11.0376 2.36365 9.7658 2.89043 8.82811 3.82811C7.89043 4.7658 7.36365 6.03756 7.36365 7.36365C7.36365 8.68973 7.89043 9.9615 8.82811 10.8992C9.7658 11.8369 11.0376 12.3636 12.3636 12.3636Z" />
</svg>
