<svg width="24" height="24" viewBox="0 0 24 24" fill="none" xmlns="http://www.w3.org/2000/svg">
<path d="M13.9615 18.5385C13.9615 19.0587 13.7549 19.5576 13.387 19.9255C13.0191 20.2933 12.5202 20.5 12 20.5C11.4798 20.5 10.9808 20.2933 10.613 19.9255C10.2451 19.5576 10.0385 19.0587 10.0385 18.5385C10.0385 18.0182 10.2451 17.5193 10.613 17.1514C10.9808 16.7836 11.4798 16.5769 12 16.5769C12.5202 16.5769 13.0191 16.7836 13.387 17.1514C13.7549 17.5193 13.9615 18.0182 13.9615 18.5385ZM13.9615 12C13.9615 12.5202 13.7549 13.0192 13.387 13.387C13.0191 13.7549 12.5202 13.9615 12 13.9615C11.4798 13.9615 10.9808 13.7549 10.613 13.387C10.2451 13.0192 10.0385 12.5202 10.0385 12C10.0385 11.4798 10.2451 10.9808 10.613 10.613C10.9808 10.2451 11.4798 10.0385 12 10.0385C12.5202 10.0385 13.0191 10.2451 13.387 10.613C13.7549 10.9808 13.9615 11.4798 13.9615 12ZM13.9615 5.46154C13.9615 5.98177 13.7549 6.4807 13.387 6.84856C13.0191 7.21642 12.5202 7.42308 12 7.42308C11.4798 7.42308 10.9808 7.21642 10.613 6.84856C10.2451 6.4807 10.0385 5.98177 10.0385 5.46154C10.0385 4.94131 10.2451 4.44238 10.613 4.07452C10.9808 3.70666 11.4798 3.5 12 3.5C12.5202 3.5 13.0191 3.70666 13.387 4.07452C13.7549 4.44238 13.9615 4.94131 13.9615 5.46154Z" fill="#6C7887"/>
</svg>
