<svg width="14" height="14" viewBox="0 0 14 14" fill="none" xmlns="http://www.w3.org/2000/svg">
<g clip-path="url(#clip0_35_830)">
<path d="M5.733 11.9139C5.733 11.9139 4.914 11.9139 4.914 11.0949C4.914 10.2759 5.733 7.81894 9.009 7.81894C12.285 7.81894 13.104 10.2759 13.104 11.0949C13.104 11.9139 12.285 11.9139 12.285 11.9139H5.733ZM9.009 6.99994C9.66064 6.99994 10.2856 6.74108 10.7464 6.2803C11.2071 5.81952 11.466 5.19457 11.466 4.54294C11.466 3.8913 11.2071 3.26635 10.7464 2.80558C10.2856 2.3448 9.66064 2.08594 9.009 2.08594C8.35736 2.08594 7.73241 2.3448 7.27164 2.80558C6.81086 3.26635 6.552 3.8913 6.552 4.54294C6.552 5.19457 6.81086 5.81952 7.27164 6.2803C7.73241 6.74108 8.35736 6.99994 9.009 6.99994ZM4.2719 11.9139C4.15055 11.6582 4.09 11.3779 4.095 11.0949C4.095 9.98519 4.65192 8.84269 5.68058 8.04826C5.16722 7.88973 4.63224 7.81236 4.095 7.81894C0.819 7.81894 0 10.2759 0 11.0949C0 11.9139 0.819 11.9139 0.819 11.9139H4.2719ZM3.6855 6.99994C4.22853 6.99994 4.74932 6.78422 5.1333 6.40024C5.51728 6.01626 5.733 5.49547 5.733 4.95244C5.733 4.40941 5.51728 3.88862 5.1333 3.50464C4.74932 3.12066 4.22853 2.90494 3.6855 2.90494C3.14247 2.90494 2.62168 3.12066 2.2377 3.50464C1.85372 3.88862 1.638 4.40941 1.638 4.95244C1.638 5.49547 1.85372 6.01626 2.2377 6.40024C2.62168 6.78422 3.14247 6.99994 3.6855 6.99994Z" />
</g>
<defs>
<clipPath id="clip0_35_830">
<rect width="13.104" height="13.104" fill="white" transform="translate(0 0.447998)"/>
</clipPath>
</defs>
</svg>
