<svg width="51" height="50" viewBox="0 0 51 50" fill="none" xmlns="http://www.w3.org/2000/svg">
<g clip-path="url(#clip0_146_215)">
<path d="M44.4615 25.2308C44.4615 30.3311 42.4354 35.2225 38.829 38.829C35.2225 42.4354 30.3311 44.4615 25.2308 44.4615C20.1305 44.4615 15.239 42.4354 11.6326 38.829C8.02609 35.2225 6 30.3311 6 25.2308C6 20.1305 8.02609 15.239 11.6326 11.6326C15.239 8.02609 20.1305 6 25.2308 6C30.3311 6 35.2225 8.02609 38.829 11.6326C42.4354 15.239 44.4615 20.1305 44.4615 25.2308ZM26.4327 16.8173C26.4327 16.4985 26.3061 16.1928 26.0807 15.9674C25.8553 15.742 25.5495 15.6154 25.2308 15.6154C24.912 15.6154 24.6063 15.742 24.3809 15.9674C24.1555 16.1928 24.0288 16.4985 24.0288 16.8173V24.0288H16.8173C16.4985 24.0288 16.1928 24.1555 15.9674 24.3809C15.742 24.6063 15.6154 24.912 15.6154 25.2308C15.6154 25.5495 15.742 25.8553 15.9674 26.0807C16.1928 26.3061 16.4985 26.4327 16.8173 26.4327H24.0288V33.6442C24.0288 33.963 24.1555 34.2687 24.3809 34.4941C24.6063 34.7195 24.912 34.8462 25.2308 34.8462C25.5495 34.8462 25.8553 34.7195 26.0807 34.4941C26.3061 34.2687 26.4327 33.963 26.4327 33.6442V26.4327H33.6442C33.963 26.4327 34.2687 26.3061 34.4941 26.0807C34.7195 25.8553 34.8462 25.5495 34.8462 25.2308C34.8462 24.912 34.7195 24.6063 34.4941 24.3809C34.2687 24.1555 33.963 24.0288 33.6442 24.0288H26.4327V16.8173Z" fill="#313D4C"/>
</g>
<defs>
<clipPath id="clip0_146_215">
<rect width="50" height="50" fill="white" transform="translate(0.5)"/>
</clipPath>
</defs>
</svg>
