<svg width="27" height="26" viewBox="0 0 27 26" fill="none" xmlns="http://www.w3.org/2000/svg">
<path d="M16.5561 10.9343C13.3038 10.9343 10.6587 13.5805 10.6587 16.8318C10.6587 20.083 13.3038 22.7292 16.5561 22.7292C19.8084 22.7292 22.4535 20.083 22.4535 16.8318C22.4535 13.5805 19.8084 10.9343 16.5561 10.9343ZM18.5612 17.601H16.5561C16.1315 17.601 15.7869 17.2564 15.7869 16.8318V14.7446C15.7869 14.32 16.1315 13.9753 16.5561 13.9753C16.9807 13.9753 17.3253 14.32 17.3253 14.7446V16.0625H18.5612C18.9858 16.0625 19.3305 16.4071 19.3305 16.8318C19.3305 17.2564 18.9858 17.601 18.5612 17.601ZM17.5817 2.72919H7.32533C5.76636 2.72919 4.50482 3.99073 4.50482 5.5497V18.883C4.50482 20.442 5.76636 21.7035 7.32533 21.7035H10.9561C9.80739 20.401 9.12021 18.6984 9.12021 16.8318C9.12021 12.7292 12.4535 9.39585 16.5561 9.39585C17.9715 9.39585 19.2843 9.7856 20.4023 10.483V5.5497C20.4023 3.99073 19.1407 2.72919 17.5817 2.72919ZM9.37662 13.4984H8.35098C7.93046 13.4984 7.58175 13.1497 7.58175 12.7292C7.58175 12.3087 7.93046 11.96 8.35098 11.96H9.37662C9.79713 11.96 10.1458 12.3087 10.1458 12.7292C10.1458 13.1497 9.79713 13.4984 9.37662 13.4984ZM12.4535 10.4215H8.35098C7.93046 10.4215 7.58175 10.0728 7.58175 9.65226C7.58175 9.23175 7.93046 8.88303 8.35098 8.88303H12.4535C12.8741 8.88303 13.2228 9.23175 13.2228 9.65226C13.2228 10.0728 12.8741 10.4215 12.4535 10.4215ZM16.5561 7.34457H8.35098C7.93046 7.34457 7.58175 6.99585 7.58175 6.57534C7.58175 6.15483 7.93046 5.80611 8.35098 5.80611H16.5561C16.9766 5.80611 17.3253 6.15483 17.3253 6.57534C17.3253 6.99585 16.9766 7.34457 16.5561 7.34457Z" fill="#B0B9C2"/>
</svg>
