?react<svg width="26" height="26" viewBox="0 0 26 26" fill="none" xmlns="http://www.w3.org/2000/svg">
<path d="M9.86365 2.36365C9.17224 2.36365 8.61365 2.92224 8.61365 3.61365V4.86365C8.61365 4.86755 8.61365 4.86755 8.61365 4.87146C7.10583 4.9574 5.78943 5.93787 5.28552 7.37537L3.91052 11.3011C3.00427 11.6761 2.36365 12.5707 2.36365 13.6136V19.2386V21.1136C2.36365 21.8051 2.92224 22.3636 3.61365 22.3636H4.86365C5.55505 22.3636 6.11365 21.8051 6.11365 21.1136V19.2386H18.6136V21.1136C18.6136 21.8051 19.1722 22.3636 19.8636 22.3636H21.1136C21.8051 22.3636 22.3636 21.8051 22.3636 21.1136V19.2386V13.6136C22.3636 12.5707 21.723 11.6761 20.8168 11.3011L19.4418 7.37537C18.9379 5.93787 17.6215 4.95349 16.1136 4.87146C16.1136 4.86755 16.1136 4.86755 16.1136 4.86365V3.61365C16.1136 2.92224 15.5551 2.36365 14.8636 2.36365H9.86365ZM8.82458 7.36365H15.9027C16.434 7.36365 16.9066 7.69958 17.0824 8.19958L18.1019 11.1136H6.62537L7.6449 8.19958C7.82068 7.69958 8.29333 7.36365 8.82458 7.36365ZM6.11365 13.6136C6.44517 13.6136 6.76311 13.7453 6.99753 13.9798C7.23195 14.2142 7.36365 14.5321 7.36365 14.8636C7.36365 15.1952 7.23195 15.5131 6.99753 15.7475C6.76311 15.982 6.44517 16.1136 6.11365 16.1136C5.78213 16.1136 5.46418 15.982 5.22976 15.7475C4.99534 15.5131 4.86365 15.1952 4.86365 14.8636C4.86365 14.5321 4.99534 14.2142 5.22976 13.9798C5.46418 13.7453 5.78213 13.6136 6.11365 13.6136ZM17.3636 14.8636C17.3636 14.5321 17.4953 14.2142 17.7298 13.9798C17.9642 13.7453 18.2821 13.6136 18.6136 13.6136C18.9452 13.6136 19.2631 13.7453 19.4975 13.9798C19.732 14.2142 19.8636 14.5321 19.8636 14.8636C19.8636 15.1952 19.732 15.5131 19.4975 15.7475C19.2631 15.982 18.9452 16.1136 18.6136 16.1136C18.2821 16.1136 17.9642 15.982 17.7298 15.7475C17.4953 15.5131 17.3636 15.1952 17.3636 14.8636Z" fill="#181F29"/>
</svg>
